<?xml version="1.0" standalone="no"?>
<!DOCTYPE svg PUBLIC "-//W3C//DTD SVG 20010904//EN"
 "http://www.w3.org/TR/2001/REC-SVG-20010904/DTD/svg10.dtd">
<svg version="1.0" xmlns="http://www.w3.org/2000/svg"
 width="452.000000pt" height="452.000000pt" viewBox="0 0 452.000000 452.000000"
 preserveAspectRatio="xMidYMid meet">
<metadata>
Created by potrace 1.11, written by Peter Selinger 2001-2013
</metadata>
<g transform="translate(0.000000,452.000000) scale(0.100000,-0.100000)"
fill="#000000" stroke="none">
<path d="M683 4419 c-55 -27 -99 -78 -114 -131 -21 -80 9 -319 44 -355 4 -3 7
-14 7 -23 0 -9 16 -48 35 -87 19 -39 35 -76 35 -82 0 -5 15 -22 34 -36 19 -14
41 -37 50 -49 14 -23 13 -24 -34 -55 -146 -95 -241 -287 -226 -458 12 -134 60
-234 159 -331 l54 -54 -53 -53 c-29 -29 -56 -66 -60 -81 -3 -16 -17 -56 -30
-89 -28 -73 -50 -210 -64 -400 -24 -326 0 -491 110 -760 23 -55 45 -120 50
-145 5 -25 18 -76 29 -115 28 -92 28 -215 1 -321 -42 -162 -163 -370 -269
-462 l-61 -53 0 -59 c0 -48 4 -64 26 -90 88 -104 211 -75 391 93 193 180 344
486 413 840 8 37 18 66 23 64 4 -1 19 -23 32 -47 92 -172 135 -353 135 -567 0
-83 4 -116 18 -143 23 -46 80 -74 153 -75 48 0 63 5 112 37 87 58 91 71 84
278 -7 182 -21 300 -38 310 -5 4 -27 56 -48 117 -54 154 -98 242 -193 385 -85
127 -134 228 -124 255 4 8 -5 51 -19 95 -18 56 -25 102 -25 156 l0 77 74 23
c103 32 281 124 407 209 l106 72 47 -24 c26 -13 67 -27 91 -31 43 -6 63 -25
521 -490 385 -392 493 -495 560 -540 106 -71 228 -134 258 -134 24 0 100 -33
326 -142 69 -33 154 -74 190 -91 36 -17 80 -43 98 -59 43 -37 113 -40 136 -6
27 38 18 85 -24 133 -10 11 -53 97 -95 190 -42 94 -83 181 -91 195 -39 74 -84
188 -84 216 0 29 -94 212 -164 319 -49 75 -135 167 -511 545 -434 436 -453
457 -460 500 -13 83 -36 123 -114 203 -86 89 -110 105 -121 87 -5 -9 -93 71
-271 246 -371 365 -595 566 -804 724 -38 29 -89 76 -112 105 -68 86 -97 101
-268 139 -60 14 -128 29 -150 35 -65 17 -136 13 -182 -10z"/>
</g>
</svg>
